<?xml version="1.0" encoding="utf-8"?>
<!-- Generator: Adobe Illustrator 16.0.0, SVG Export Plug-In . SVG Version: 6.00 Build 0)  -->
<!DOCTYPE svg PUBLIC "-//W3C//DTD SVG 1.1//EN" "http://www.w3.org/Graphics/SVG/1.1/DTD/svg11.dtd">
<svg version="1.1" id="Layer_1" xmlns="http://www.w3.org/2000/svg" xmlns:xlink="http://www.w3.org/1999/xlink" x="0px" y="0px"
	 width="195px" height="70px" viewBox="0 0 195 70" enable-background="new 0 0 195 70" xml:space="preserve">
<g>
	<path fill="#CA4D20" d="M70,60c0,5.5-4.5,10-10,10H10C4.5,70,0,65.5,0,60V10C0,4.5,4.5,0,10,0h50c5.5,0,10,4.5,10,10V60z"/>
</g>
<g>
	<circle fill="#CA4D20" stroke="#FFFFFF" stroke-width="3" stroke-miterlimit="10" cx="35" cy="35" r="26.008"/>
	<g>
		<polyline fill="#CA4D20" stroke="#FFFFFF" stroke-width="3" stroke-linecap="round" stroke-miterlimit="10" points="
			24.485,30.361 35.309,35 45.515,30.361 		"/>
		<polyline fill="#CA4D20" stroke="#FFFFFF" stroke-width="3" stroke-linecap="round" stroke-miterlimit="10" points="
			24.485,39.639 35.309,35 45.515,39.639 		"/>
	</g>
	<polyline fill="#CA4D20" stroke="#FFFFFF" stroke-width="3" stroke-linecap="round" stroke-miterlimit="10" points="18.913,17.407 
		10.181,17.407 13.396,26.762 	"/>
	<polyline fill="#CA4D20" stroke="#FFFFFF" stroke-width="3" stroke-linecap="round" stroke-miterlimit="10" points="49.833,17.407 
		58.563,17.407 55.349,26.762 	"/>
</g>
<text transform="matrix(1 0 0 1 86.2134 47.7622)" fill="#CA4D20" font-family="'MetaBoldLFC'" font-size="36.8172">AirCat</text>
</svg>
